<svg id="Capa_1" enable-background="new 0 0 510 510" height="512" viewBox="0 0 510 510" width="512" xmlns="http://www.w3.org/2000/svg" xmlns:xlink="http://www.w3.org/1999/xlink"><linearGradient id="lg1"><stop offset="0" stop-color="#4f4a72"/><stop offset="1" stop-color="#3b395f"/></linearGradient><linearGradient id="SVGID_1_" gradientUnits="userSpaceOnUse" x1="202.527" x2="202.527" xlink:href="#lg1" y1="137.095" y2="346.437"/><linearGradient id="lg2"><stop offset="0" stop-color="#ffe548"/><stop offset=".1758" stop-color="#ffde50"/><stop offset=".4446" stop-color="#ffca65"/><stop offset=".7709" stop-color="#ffaa87"/><stop offset="1" stop-color="#ff90a4"/></linearGradient><linearGradient id="SVGID_2_" gradientUnits="userSpaceOnUse" x1="197.286" x2="208.286" xlink:href="#lg2" y1="123.53" y2="145.53"/><linearGradient id="lg3"><stop offset="0" stop-color="#d4f7ff"/><stop offset="1" stop-color="#a2e3e9"/></linearGradient><linearGradient id="SVGID_3_" gradientUnits="userSpaceOnUse" x1="311.605" x2="384.271" xlink:href="#lg3" y1="152.18" y2="324.18"/><linearGradient id="SVGID_4_" gradientUnits="userSpaceOnUse" x1="67.419" x2="178.752" xlink:href="#lg3" y1="194.496" y2="403.163"/><linearGradient id="lg4"><stop offset="0" stop-color="#ff4974"/><stop offset=".2231" stop-color="#fb3f6c"/><stop offset=".6075" stop-color="#f12357"/><stop offset="1" stop-color="#e4003d"/></linearGradient><linearGradient id="SVGID_5_" gradientUnits="userSpaceOnUse" x1="32.171" x2="135.211" xlink:href="#lg4" y1="223.897" y2="347.927"/><linearGradient id="SVGID_6_" gradientUnits="userSpaceOnUse" x1="112.542" x2="123.769" xlink:href="#lg1" y1="206.691" y2="276.111"/><linearGradient id="lg5"><stop offset="0" stop-color="#a34a9e" stop-opacity="0"/><stop offset="1" stop-color="#343168"/></linearGradient><linearGradient id="SVGID_7_" gradientUnits="userSpaceOnUse" x1="82.886" x2="-29.615" xlink:href="#lg5" y1="284.468" y2="211.468"/><linearGradient id="SVGID_8_" gradientUnits="userSpaceOnUse" x1="49.62" x2="49.62" xlink:href="#lg4" y1="234.428" y2="261.097"/><linearGradient id="SVGID_9_" gradientUnits="userSpaceOnUse" x1="117.99" x2="117.99" xlink:href="#lg5" y1="270.757" y2="378.098"/><linearGradient id="SVGID_10_" gradientUnits="userSpaceOnUse" x1="247.157" x2="390.71" xlink:href="#lg4" y1="190.239" y2="363.034"/><linearGradient id="SVGID_11_" gradientUnits="userSpaceOnUse" x1="339.783" x2="356.45" xlink:href="#lg4" y1="213.296" y2="268.629"/><linearGradient id="SVGID_12_" gradientUnits="userSpaceOnUse" x1="391.214" x2="391.214" xlink:href="#lg5" y1="270.757" y2="378.098"/><linearGradient id="SVGID_13_" gradientUnits="userSpaceOnUse" x1="253.617" x2="253.617" xlink:href="#lg3" y1="332.091" y2="363.786"/><linearGradient id="lg6"><stop offset="0" stop-color="#a34a9e"/><stop offset=".1551" stop-color="#9b489a"/><stop offset=".4019" stop-color="#84438f"/><stop offset=".7073" stop-color="#5e3b7d"/><stop offset="1" stop-color="#343168"/></linearGradient><radialGradient id="SVGID_14_" cx="110.537" cy="337.078" gradientUnits="userSpaceOnUse" r="66.476" xlink:href="#lg6"/><linearGradient id="lg7"><stop offset="0" stop-color="#a34a9e"/><stop offset="1" stop-color="#343168"/></linearGradient><linearGradient id="SVGID_15_" gradientTransform="matrix(-1 0 0 -1 -3746 510)" gradientUnits="userSpaceOnUse" x1="-3903.603" x2="-3830.213" xlink:href="#lg7" y1="117.872" y2="191.262"/><linearGradient id="SVGID_16_" gradientUnits="userSpaceOnUse" x1="81.994" x2="148.681" xlink:href="#lg3" y1="316.519" y2="383.206"/><linearGradient id="SVGID_17_" gradientTransform="matrix(-1 0 0 -1 -3746 510)" gradientUnits="userSpaceOnUse" x1="-3884.905" x2="-3846.155" xlink:href="#lg3" y1="136.57" y2="175.32"/><linearGradient id="lg8"><stop offset="0" stop-color="#a2e3e9" stop-opacity="0"/><stop offset="1" stop-color="#518cd2"/></linearGradient><linearGradient id="SVGID_18_" gradientUnits="userSpaceOnUse" x1="144.692" x2="114.635" xlink:href="#lg8" y1="379.217" y2="349.16"/><linearGradient id="SVGID_19_" gradientUnits="userSpaceOnUse" x1="115.86" x2="126.679" xlink:href="#lg1" y1="350.385" y2="361.204"/><linearGradient id="SVGID_20_" gradientUnits="userSpaceOnUse" x1="116.082" x2="120.564" xlink:href="#lg1" y1="325.9" y2="330.383"/><linearGradient id="SVGID_21_" gradientUnits="userSpaceOnUse" x1="116.082" x2="120.564" xlink:href="#lg1" y1="375.314" y2="379.796"/><linearGradient id="SVGID_22_" gradientTransform="matrix(0 1 -1 0 -1618 2128)" gradientUnits="userSpaceOnUse" x1="-1777.393" x2="-1772.911" xlink:href="#lg1" y1="-1762.603" y2="-1758.121"/><linearGradient id="SVGID_23_" gradientTransform="matrix(0 1 -1 0 -1618 2128)" gradientUnits="userSpaceOnUse" x1="-1777.393" x2="-1772.911" xlink:href="#lg1" y1="-1713.19" y2="-1708.708"/><linearGradient id="SVGID_24_" gradientTransform="matrix(.707 .707 -.707 .707 -368.3 1399)" gradientUnits="userSpaceOnUse" x1="-398.03" x2="-393.548" xlink:href="#lg1" y1="-1110.46" y2="-1105.978"/><linearGradient id="SVGID_25_" gradientTransform="matrix(.707 .707 -.707 .707 -368.3 1399)" gradientUnits="userSpaceOnUse" x1="-398.03" x2="-393.548" xlink:href="#lg1" y1="-1061.047" y2="-1056.564"/><linearGradient id="SVGID_26_" gradientTransform="matrix(-.707 .707 .707 .707 -3377.7 1399)" gradientUnits="userSpaceOnUse" x1="-3213.741" x2="-3209.259" xlink:href="#lg1" y1="1705.251" y2="1709.733"/><linearGradient id="SVGID_27_" gradientTransform="matrix(-.707 .707 .707 .707 -3377.7 1399)" gradientUnits="userSpaceOnUse" x1="-3213.741" x2="-3209.259" xlink:href="#lg1" y1="1754.665" y2="1759.147"/><radialGradient id="SVGID_28_" cx="383.762" cy="337.078" gradientUnits="userSpaceOnUse" r="66.476" xlink:href="#lg6"/><linearGradient id="SVGID_29_" gradientTransform="matrix(-1 0 0 -1 -3746 510)" gradientUnits="userSpaceOnUse" x1="-4176.828" x2="-4103.438" xlink:href="#lg7" y1="117.872" y2="191.262"/><linearGradient id="SVGID_30_" gradientUnits="userSpaceOnUse" x1="355.219" x2="421.906" xlink:href="#lg3" y1="316.519" y2="383.206"/><linearGradient id="SVGID_31_" gradientTransform="matrix(-1 0 0 -1 -3746 510)" gradientUnits="userSpaceOnUse" x1="-4158.13" x2="-4119.38" xlink:href="#lg3" y1="136.57" y2="175.32"/><linearGradient id="SVGID_32_" gradientUnits="userSpaceOnUse" x1="417.917" x2="387.86" xlink:href="#lg8" y1="379.217" y2="349.16"/><linearGradient id="SVGID_33_" gradientUnits="userSpaceOnUse" x1="389.085" x2="399.904" xlink:href="#lg1" y1="350.385" y2="361.204"/><linearGradient id="SVGID_34_" gradientUnits="userSpaceOnUse" x1="389.307" x2="393.789" xlink:href="#lg1" y1="325.9" y2="330.383"/><linearGradient id="SVGID_35_" gradientUnits="userSpaceOnUse" x1="389.307" x2="393.789" xlink:href="#lg1" y1="375.314" y2="379.796"/><linearGradient id="SVGID_36_" gradientTransform="matrix(0 1 -1 0 -1618 2128)" gradientUnits="userSpaceOnUse" x1="-1777.393" x2="-1772.911" xlink:href="#lg1" y1="-2035.829" y2="-2031.346"/><linearGradient id="SVGID_37_" gradientTransform="matrix(0 1 -1 0 -1618 2128)" gradientUnits="userSpaceOnUse" x1="-1777.393" x2="-1772.911" xlink:href="#lg1" y1="-1986.415" y2="-1981.933"/><linearGradient id="SVGID_38_" gradientTransform="matrix(.707 .707 -.707 .707 -368.3 1399)" gradientUnits="userSpaceOnUse" x1="-204.829" x2="-200.346" xlink:href="#lg1" y1="-1303.662" y2="-1299.18"/><linearGradient id="SVGID_39_" gradientTransform="matrix(.707 .707 -.707 .707 -368.3 1399)" gradientUnits="userSpaceOnUse" x1="-204.829" x2="-200.346" xlink:href="#lg1" y1="-1254.248" y2="-1249.766"/><linearGradient id="SVGID_40_" gradientTransform="matrix(-.707 .707 .707 .707 -3377.7 1399)" gradientUnits="userSpaceOnUse" x1="-3406.942" x2="-3402.46" xlink:href="#lg1" y1="1898.452" y2="1902.934"/><linearGradient id="SVGID_41_" gradientTransform="matrix(-.707 .707 .707 .707 -3377.7 1399)" gradientUnits="userSpaceOnUse" x1="-3406.942" x2="-3402.46" xlink:href="#lg1" y1="1947.866" y2="1952.348"/><linearGradient id="SVGID_42_" gradientUnits="userSpaceOnUse" x1="469.145" x2="487.145" xlink:href="#lg4" y1="295.609" y2="317.276"/><linearGradient id="SVGID_43_" gradientUnits="userSpaceOnUse" x1="-8.882" x2="44.785" xlink:href="#lg3" y1="261.172" y2="321.172"/><linearGradient id="SVGID_44_" gradientUnits="userSpaceOnUse" x1="-14.036" x2="32.631" xlink:href="#lg4" y1="266.792" y2="313.459"/><linearGradient id="SVGID_45_" gradientUnits="userSpaceOnUse" x1="21.057" x2="25.754" xlink:href="#lg2" y1="291.184" y2="330.953"/><linearGradient id="SVGID_46_" gradientUnits="userSpaceOnUse" x1="29.385" x2="29.385" xlink:href="#lg1" y1="317.933" y2="349.257"/><linearGradient id="SVGID_47_" gradientUnits="userSpaceOnUse" x1="488.62" x2="488.62" xlink:href="#lg1" y1="317.933" y2="349.257"/><linearGradient id="SVGID_48_" gradientUnits="userSpaceOnUse" x1="440.846" x2="137.663" xlink:href="#lg5" y1="261.078" y2="-42.105"/><linearGradient id="SVGID_49_" gradientUnits="userSpaceOnUse" x1="341.318" x2="353.934" xlink:href="#lg4" y1="150.463" y2="192.347"/><path d="m175.486 179.786h54.082v172.729h-54.082z" fill="url(#SVGID_1_)"/><path d="m211 149.818h-12.077c-4.028 0-7.294-3.266-7.294-7.294v-16.308c0-4.028 3.266-7.294 7.294-7.294h12.077z" fill="url(#SVGID_2_)"/><path d="m489.667 352.514h-287.14v-234.544c0-7.72 6.259-13.979 13.979-13.979h259.181c7.72 0 13.979 6.259 13.979 13.979v234.544z" fill="url(#SVGID_3_)"/><path d="m164.156 149.818h-24.254c-50.712 0-92.846 36.712-101.284 85.007-1.171 6.701-5.621 12.37-11.806 15.204-7.401 3.391-12.146 10.785-12.146 18.925v83.559h22.408 18.259 136.296v-175.221c0-15.173-12.3-27.474-27.473-27.474z" fill="url(#SVGID_4_)"/><path d="m14.863 266.15c-.125.922-.196 1.858-.196 2.805v83.559h22.408 18.259 136.296v-86.364z" fill="url(#SVGID_5_)"/><path d="m166.265 245.204h-103.826c0-39.998 32.425-72.423 72.423-72.423h12.053c10.687 0 19.35 8.663 19.35 19.35z" fill="url(#SVGID_6_)"/><path d="m58.138 236.1c-.472-1.495-1.853-2.586-3.503-2.586-7.577 0-13.72 6.143-13.72 13.72v4.28c0 4.4 2.08 8.307 5.301 10.818l90.182 90.182h38.154z" fill="url(#SVGID_7_)"/><path d="m54.635 265.234c-7.577 0-13.72-6.143-13.72-13.72v-4.28c0-7.577 6.143-13.72 13.72-13.72 2.038 0 3.69 1.652 3.69 3.69v24.339c0 2.039-1.652 3.691-3.69 3.691z" fill="url(#SVGID_8_)"/><path d="m191.99 352.511h-148c0-40.87 33.13-74 74-74 7 0 13.78.97 20.21 2.8 31.05 8.79 53.79 37.34 53.79 71.2z" fill="url(#SVGID_9_)"/><path d="m202.527 266.15h287.14v86.365h-287.14z" fill="url(#SVGID_10_)"/><path d="m202.527 222.09h287.14v24.333h-287.14z" fill="url(#SVGID_11_)"/><path d="m465.214 352.511h-148c0-40.87 33.13-74 74-74 7 0 13.78.97 20.21 2.8 31.05 8.79 53.79 37.34 53.79 71.2z" fill="url(#SVGID_12_)"/><path d="m31.734 330.396h443.766v25.028h-443.766z" fill="url(#SVGID_13_)"/><circle cx="117.989" cy="352.514" fill="url(#SVGID_14_)" r="53.494"/><circle cx="117.989" cy="352.514" fill="url(#SVGID_15_)" r="34.598"/><circle cx="117.989" cy="352.514" fill="url(#SVGID_16_)" r="31.439"/><circle cx="117.989" cy="352.514" fill="url(#SVGID_17_)" r="18.268"/><path d="m146.243 366.31-20.543-20.543c-1.88-2.146-4.633-3.508-7.71-3.508-5.664 0-10.256 4.592-10.256 10.256 0 3.077 1.362 5.831 3.508 7.71l20.543 20.543c6.281-3.073 11.385-8.177 14.458-14.458z" fill="url(#SVGID_18_)"/><circle cx="117.989" cy="352.514" fill="url(#SVGID_19_)" r="10.256"/><circle cx="117.989" cy="327.808" fill="url(#SVGID_20_)" r="3.637"/><circle cx="117.989" cy="377.221" fill="url(#SVGID_21_)" r="3.637"/><circle cx="142.696" cy="352.514" fill="url(#SVGID_22_)" r="3.637"/><circle cx="93.283" cy="352.514" fill="url(#SVGID_23_)" r="3.637"/><circle cx="135.46" cy="335.044" fill="url(#SVGID_24_)" r="3.637"/><circle cx="100.519" cy="369.985" fill="url(#SVGID_25_)" r="3.637"/><circle cx="100.519" cy="335.044" fill="url(#SVGID_26_)" r="3.637"/><circle cx="135.46" cy="369.985" fill="url(#SVGID_27_)" r="3.637"/><circle cx="391.214" cy="352.514" fill="url(#SVGID_28_)" r="53.494"/><circle cx="391.214" cy="352.514" fill="url(#SVGID_29_)" r="34.598"/><circle cx="391.214" cy="352.514" fill="url(#SVGID_30_)" r="31.439"/><circle cx="391.214" cy="352.514" fill="url(#SVGID_31_)" r="18.268"/><path d="m419.468 366.31-20.543-20.543c-1.88-2.146-4.633-3.508-7.71-3.508-5.664 0-10.256 4.592-10.256 10.256 0 3.077 1.362 5.831 3.508 7.71l20.543 20.543c6.281-3.073 11.385-8.177 14.458-14.458z" fill="url(#SVGID_32_)"/><circle cx="391.214" cy="352.514" fill="url(#SVGID_33_)" r="10.256"/><circle cx="391.214" cy="327.808" fill="url(#SVGID_34_)" r="3.637"/><circle cx="391.214" cy="377.221" fill="url(#SVGID_35_)" r="3.637"/><circle cx="415.921" cy="352.514" fill="url(#SVGID_36_)" r="3.637"/><circle cx="366.508" cy="352.514" fill="url(#SVGID_37_)" r="3.637"/><circle cx="408.685" cy="335.044" fill="url(#SVGID_38_)" r="3.637"/><circle cx="373.744" cy="369.985" fill="url(#SVGID_39_)" r="3.637"/><circle cx="373.744" cy="335.044" fill="url(#SVGID_40_)" r="3.637"/><circle cx="408.685" cy="369.985" fill="url(#SVGID_41_)" r="3.637"/><path d="m489.667 293.681h-8.62c-5.687 0-10.297 4.61-10.297 10.297v20.192h18.917z" fill="url(#SVGID_42_)"/><path d="m26.813 250.03c-7.401 3.391-12.146 10.785-12.146 18.926v83.559h22.408 5.802v-78.805c0-9.892-2.718-19.593-7.856-28.045l-.806-1.326c-1.981 2.396-4.497 4.359-7.402 5.691z" fill="url(#SVGID_43_)"/><path d="m42.342 266.15h-27.479v.001c-.062.459-.111.921-.144 1.387-.032.47-.052.942-.052 1.417v83.559h22.408 5.802v-78.805c-.001-2.538-.182-5.064-.535-7.559z" fill="url(#SVGID_44_)"/><path d="m22.485 293.681h-7.818v30.489h18.115v-20.192c0-5.687-4.61-10.297-10.297-10.297z" fill="url(#SVGID_45_)"/><path d="m45.142 361.428h-31.515c-7.526 0-13.627-6.101-13.627-13.627v-16.172c0-7.526 6.101-13.627 13.627-13.627h31.515c7.526 0 13.627 6.101 13.627 13.627v16.172c.001 7.526-6.101 13.627-13.627 13.627z" fill="url(#SVGID_46_)"/><path d="m496.373 361.428h-15.505c-7.526 0-13.627-6.101-13.627-13.627v-16.172c0-7.526 6.101-13.627 13.627-13.627h15.505c7.526 0 13.627 6.101 13.627 13.627v16.172c0 7.526-6.101 13.627-13.627 13.627z" fill="url(#SVGID_47_)"/><path d="m489.667 258.287-126.546-126.545c0-1.655-1.341-2.996-2.996-2.996h-28.056c-1.655 0-2.996 1.341-2.996 2.996v14.567c0 1.655-1.341 2.996-2.996 2.996h-14.567c-1.654 0-2.996 1.341-2.996 2.996v28.056c0 1.655 1.342 2.996 2.996 2.996l165.78 166.962c.546.732 1.411 1.213 2.395 1.213h.382v.382c0 .209.032.408.073.604h9.527z" fill="url(#SVGID_48_)"/><path d="m380.684 149.305h-14.567c-1.655 0-2.996-1.341-2.996-2.996v-14.567c0-1.655-1.341-2.996-2.996-2.996h-28.056c-1.655 0-2.996 1.341-2.996 2.996v14.567c0 1.655-1.341 2.996-2.996 2.996h-14.567c-1.655 0-2.996 1.341-2.996 2.996v28.056c0 1.655 1.341 2.996 2.996 2.996h14.567c1.655 0 2.996 1.341 2.996 2.996v14.567c0 1.655 1.341 2.996 2.996 2.996h28.056c1.655 0 2.996-1.341 2.996-2.996v-14.567c0-1.655 1.341-2.996 2.996-2.996h14.567c1.655 0 2.996-1.341 2.996-2.996v-28.056c0-1.655-1.341-2.996-2.996-2.996z" fill="url(#SVGID_49_)"/></svg>