<svg width="255" height="71" viewBox="0 0 255 71" fill="none" xmlns="http://www.w3.org/2000/svg">
<path d="M24.1101 10.9262V19.5925C24.1101 25.3277 28.776 29.9933 34.5089 29.9933L59.1654 30.0118C61.9456 30.0118 64.2082 32.2745 64.2082 35.0549C64.2082 37.8355 61.9456 40.0975 59.1654 40.0975H50.4989C44.7637 40.0975 40.0981 44.7635 40.0981 50.4985V59.1651C40.0981 61.9459 37.8357 64.208 35.0549 64.208C32.2745 64.208 30.012 61.9459 30.012 59.1651V50.4803C30.012 44.7451 25.3461 40.079 19.6113 40.079H10.9264C8.1458 40.079 5.88341 37.8169 5.88341 35.0363C5.88341 32.2559 8.1458 29.9933 10.9264 29.9933H15.2847C16.9095 29.9933 18.2265 28.6765 18.2265 27.0519C18.2265 25.4271 16.9095 24.1103 15.2847 24.1103H10.9264C4.90142 24.1103 0 29.012 0 35.0363C0 41.0611 4.90142 45.9627 10.9264 45.9627H19.6113C22.1021 45.9627 24.1289 47.9891 24.1289 50.4803V59.1651C24.1289 65.1898 29.0304 70.0914 35.0549 70.0914C41.0799 70.0914 45.9811 65.1898 45.9811 59.1651V50.4985C45.9811 48.0077 48.0077 45.9811 50.4989 45.9811H59.1654C65.19 45.9811 70.0916 41.0795 70.0916 35.0549C70.0916 29.0304 65.19 24.1286 59.1673 24.1286L34.5112 24.1103C32.0201 24.1103 29.9933 22.0837 29.9933 19.5925V10.9262C29.9933 8.1458 32.2559 5.88343 35.0365 5.88343C37.8169 5.88343 40.0792 8.1458 40.0792 10.9262V15.2851C40.0792 16.9103 41.3961 18.2271 43.0209 18.2271C44.6457 18.2271 45.9629 16.9103 45.9629 15.2851V10.9262C45.9629 4.90143 41.0612 0 35.0365 0C29.0117 0 24.1101 4.90143 24.1101 10.9262Z" fill="#FF0089"/>
<path d="M86.2212 53.7988V18.9021C86.2212 18.1863 86.5613 17.6494 87.2413 17.2915C87.9213 16.9336 88.7445 16.7547 89.7109 16.7547C90.6773 16.7547 91.5005 16.9336 92.1805 17.2915C92.8606 17.6494 93.2006 18.1863 93.2006 18.9021V33.5587L104.797 17.7747C105.298 17.0947 105.942 16.7547 106.73 16.7547C107.625 16.7547 108.519 17.1484 109.414 17.9358C110.309 18.6874 110.756 19.4927 110.756 20.3517C110.756 20.8886 110.613 21.336 110.327 21.6939L100.717 33.7198L112.421 51.544C112.671 51.9019 112.796 52.3135 112.796 52.7788C112.796 53.6378 112.349 54.4431 111.454 55.1947C110.595 55.9105 109.647 56.2684 108.609 56.2684C107.535 56.2684 106.73 55.821 106.193 54.9263L96.0997 39.6254L93.2006 43.2761V53.7988C93.2006 54.4789 92.8427 55.0157 92.1268 55.4094C91.4468 55.8031 90.6415 56 89.7109 56C88.7445 56 87.9213 55.8031 87.2413 55.4094C86.5613 55.0157 86.2212 54.4789 86.2212 53.7988ZM115.844 53.7988V18.9021C115.844 18.3295 116.058 17.8284 116.488 17.3989C116.917 16.9694 117.454 16.7547 118.098 16.7547H128.728C137.211 16.7547 141.452 20.4949 141.452 27.9753C141.452 30.9102 140.808 33.2724 139.52 35.062C138.267 36.8516 136.567 38.0685 134.419 38.7127L141.452 51.7587C141.631 51.9735 141.721 52.2598 141.721 52.6177C141.721 53.5125 141.256 54.3536 140.325 55.141C139.394 55.8926 138.41 56.2684 137.372 56.2684C136.334 56.2684 135.529 55.7137 134.956 54.6041L127.333 39.7865H122.823V53.7988C122.823 54.4789 122.483 55.0157 121.803 55.4094C121.123 55.8031 120.3 56 119.333 56C118.403 56 117.579 55.8031 116.864 55.4094C116.184 55.0157 115.844 54.4789 115.844 53.7988ZM122.823 34.3104H128.728C132.558 34.3104 134.473 32.4134 134.473 28.6195C134.473 24.7898 132.558 22.875 128.728 22.875H122.823V34.3104ZM143.187 44.9941C143.187 44.5288 143.312 44.0635 143.563 43.5983L156.287 18.58C156.859 17.3631 157.844 16.7547 159.24 16.7547C159.955 16.7547 160.707 17.0231 161.494 17.56C162.318 18.061 162.729 18.6874 162.729 19.439C162.729 19.6896 162.64 19.9938 162.461 20.3517L152.153 40.9676H158.434V35.3304C158.434 34.6146 158.774 34.0777 159.454 33.7198C160.134 33.3261 160.958 33.1293 161.924 33.1293C162.89 33.1293 163.714 33.3261 164.394 33.7198C165.074 34.0777 165.414 34.6146 165.414 35.3304V40.9676H167.937C168.617 40.9676 169.154 41.2897 169.548 41.934C169.941 42.5782 170.138 43.3477 170.138 44.2425C170.138 45.0657 169.905 45.8173 169.44 46.4974C169.011 47.1416 168.51 47.4637 167.937 47.4637H165.414V53.7988C165.414 54.4789 165.074 55.0157 164.394 55.4094C163.714 55.8031 162.89 56 161.924 56C160.993 56 160.17 55.8031 159.454 55.4094C158.774 55.0157 158.434 54.4789 158.434 53.7988V47.4637H145.549C144.869 47.4637 144.297 47.249 143.831 46.8195C143.402 46.3542 143.187 45.7457 143.187 44.9941ZM170.672 53.1009C170.672 53.0293 170.708 52.8504 170.78 52.564L181.141 18.7948C181.356 18.0431 181.875 17.4705 182.698 17.0768C183.557 16.6473 184.524 16.4325 185.598 16.4325C186.671 16.4325 187.638 16.6473 188.497 17.0768C189.356 17.4705 189.892 18.0431 190.107 18.7948L200.469 52.564C200.54 52.8504 200.576 53.0293 200.576 53.1009C200.576 53.8883 200.093 54.5683 199.127 55.141C198.16 55.7137 197.176 56 196.174 56C194.85 56 194.062 55.5347 193.812 54.6041L191.772 47.4637H179.477L177.437 54.6041C177.187 55.5347 176.399 56 175.075 56C174.037 56 173.035 55.7316 172.068 55.1947C171.138 54.622 170.672 53.9241 170.672 53.1009ZM180.927 41.9876H190.268L185.598 25.5057L180.927 41.9876ZM204.291 53.7988V18.9021C204.291 18.1863 204.631 17.6494 205.311 17.2915C205.991 16.9336 206.814 16.7547 207.781 16.7547C208.747 16.7547 209.57 16.9336 210.25 17.2915C210.93 17.6494 211.27 18.1863 211.27 18.9021V49.8797H224.37C225.014 49.8797 225.515 50.1839 225.873 50.7923C226.267 51.4008 226.464 52.1166 226.464 52.9398C226.464 53.763 226.267 54.4789 225.873 55.0873C225.515 55.6958 225.014 56 224.37 56H207.351C206.528 56 205.812 55.8031 205.204 55.4094C204.595 55.0157 204.291 54.4789 204.291 53.7988ZM230.296 53.7988V18.9021C230.296 18.1863 230.636 17.6494 231.316 17.2915C231.996 16.9336 232.819 16.7547 233.786 16.7547C234.752 16.7547 235.575 16.9336 236.255 17.2915C236.935 17.6494 237.275 18.1863 237.275 18.9021V49.8797H250.375C251.019 49.8797 251.52 50.1839 251.878 50.7923C252.272 51.4008 252.469 52.1166 252.469 52.9398C252.469 53.763 252.272 54.4789 251.878 55.0873C251.52 55.6958 251.019 56 250.375 56H233.356C232.533 56 231.817 55.8031 231.209 55.4094C230.6 55.0157 230.296 54.4789 230.296 53.7988Z" fill="black"/>
</svg>
