<svg width="24" height="24" viewBox="0 0 24 24" xmlns="http://www.w3.org/2000/svg">
<path d="M23.0154 23.4224H0.876082C0.790066 23.4224 0.707573 23.3882 0.64675 23.3274C0.585928 23.2666 0.551758 23.1841 0.551758 23.0981C0.551758 23.0121 0.585928 22.9296 0.64675 22.8687C0.707573 22.8079 0.790066 22.7737 0.876082 22.7737H23.0154C23.1015 22.7737 23.1839 22.8079 23.2448 22.8687C23.3056 22.9296 23.3398 23.0121 23.3398 23.0981C23.3398 23.1841 23.3056 23.2666 23.2448 23.3274C23.1839 23.3882 23.1015 23.4224 23.0154 23.4224Z"/>
<path d="M21.2853 16.1416C21.1992 16.1416 21.1168 16.1074 21.0559 16.0466C20.9951 15.9858 20.9609 15.9033 20.9609 15.8173V14.8443C20.9609 14.7583 20.9951 14.6758 21.0559 14.615C21.1168 14.5542 21.1992 14.52 21.2853 14.52C21.3713 14.52 21.4538 14.5542 21.5146 14.615C21.5754 14.6758 21.6096 14.7583 21.6096 14.8443V15.8173C21.6096 15.9033 21.5754 15.9858 21.5146 16.0466C21.4538 16.1074 21.3713 16.1416 21.2853 16.1416Z"/>
<path d="M21.2857 23.4227H2.6046C2.51858 23.4227 2.43609 23.3885 2.37527 23.3277C2.31444 23.2669 2.28027 23.1844 2.28027 23.0984V6.25621C2.28027 6.17019 2.31444 6.0877 2.37527 6.02688C2.43609 5.96605 2.51858 5.93188 2.6046 5.93188H21.2857C21.3717 5.93188 21.4542 5.96605 21.515 6.02688C21.5758 6.0877 21.61 6.17019 21.61 6.25621V9.36972C21.61 9.45574 21.5758 9.53823 21.515 9.59905C21.4542 9.65988 21.3717 9.69405 21.2857 9.69405C21.1997 9.69405 21.1172 9.65988 21.0563 9.59905C20.9955 9.53823 20.9614 9.45574 20.9614 9.36972V6.58053H2.92892V22.774H20.9614V18.0876C20.9614 18.0015 20.9955 17.919 21.0563 17.8582C21.1172 17.7974 21.1997 17.7632 21.2857 17.7632C21.3717 17.7632 21.4542 17.7974 21.515 17.8582C21.5758 17.919 21.61 18.0015 21.61 18.0876V23.0984C21.61 23.1844 21.5758 23.2669 21.515 23.3277C21.4542 23.3885 21.3717 23.4227 21.2857 23.4227Z"/>
<path d="M21.2853 12.9178C21.1992 12.9178 21.1168 12.8837 21.0559 12.8228C20.9951 12.762 20.9609 12.6795 20.9609 12.5935V11.6432C20.9609 11.5572 20.9951 11.4747 21.0559 11.4139C21.1168 11.3531 21.1992 11.3189 21.2853 11.3189C21.3713 11.3189 21.4538 11.3531 21.5146 11.4139C21.5754 11.4747 21.6096 11.5572 21.6096 11.6432V12.5935C21.6096 12.6795 21.5754 12.762 21.5146 12.8228C21.4538 12.8837 21.3713 12.9178 21.2853 12.9178Z"/>
<path d="M16.4302 6.58056H7.463C7.37698 6.58056 7.29449 6.54639 7.23366 6.48557C7.17284 6.42475 7.13867 6.34226 7.13867 6.25624V1.04402C7.13867 0.958004 7.17284 0.875511 7.23366 0.814688C7.29449 0.753866 7.37698 0.719696 7.463 0.719696H16.4302C16.5163 0.719696 16.5987 0.753866 16.6596 0.814688C16.7204 0.875511 16.7546 0.958004 16.7546 1.04402V6.25624C16.7546 6.34226 16.7204 6.42475 16.6596 6.48557C16.5987 6.54639 16.5163 6.58056 16.4302 6.58056ZM7.78732 5.93192H16.1059V1.36835H7.78732V5.93192Z"/>
<path d="M11.9464 5.16517C11.8604 5.16517 11.7779 5.13101 11.7171 5.07018C11.6562 5.00936 11.6221 4.92687 11.6221 4.84085V2.43242C11.6221 2.3464 11.6562 2.26391 11.7171 2.20309C11.7779 2.14226 11.8604 2.10809 11.9464 2.10809C12.0324 2.10809 12.1149 2.14226 12.1757 2.20309C12.2366 2.26391 12.2707 2.3464 12.2707 2.43242V4.84215C12.2704 4.92794 12.2361 5.0101 12.1753 5.07064C12.1145 5.13118 12.0322 5.16518 11.9464 5.16517Z"/>
<path d="M13.1504 3.96032H10.7403C10.6543 3.96032 10.5718 3.92615 10.511 3.86533C10.4502 3.80451 10.416 3.72202 10.416 3.636C10.416 3.54998 10.4502 3.46749 10.511 3.40667C10.5718 3.34585 10.6543 3.31168 10.7403 3.31168H13.1504C13.2364 3.31168 13.3189 3.34585 13.3797 3.40667C13.4406 3.46749 13.4747 3.54998 13.4747 3.636C13.4747 3.72202 13.4406 3.80451 13.3797 3.86533C13.3189 3.92615 13.2364 3.96032 13.1504 3.96032Z"/>
<path d="M18.6339 11.2884H16.1691C16.083 11.2884 16.0005 11.2543 15.9397 11.1934C15.8789 11.1326 15.8447 11.0501 15.8447 10.9641V8.4973C15.8447 8.41128 15.8789 8.32879 15.9397 8.26797C16.0005 8.20714 16.083 8.17297 16.1691 8.17297H18.6339C18.7199 8.17297 18.8024 8.20714 18.8633 8.26797C18.9241 8.32879 18.9582 8.41128 18.9582 8.4973V10.9622C18.9585 11.0049 18.9503 11.0473 18.9341 11.0869C18.9179 11.1265 18.8941 11.1624 18.8639 11.1928C18.8338 11.2231 18.798 11.2471 18.7585 11.2636C18.719 11.28 18.6767 11.2884 18.6339 11.2884ZM16.4934 10.6398H18.3096V8.82162H16.4934V10.6398Z"/>
<path d="M13.254 11.2884H10.7892C10.7032 11.2884 10.6207 11.2543 10.5598 11.1934C10.499 11.1326 10.4648 11.0501 10.4648 10.9641V8.4973C10.4648 8.41128 10.499 8.32879 10.5598 8.26797C10.6207 8.20714 10.7032 8.17297 10.7892 8.17297H13.254C13.3401 8.17297 13.4226 8.20714 13.4834 8.26797C13.5442 8.32879 13.5784 8.41128 13.5784 8.4973V10.9622C13.5786 11.0049 13.5704 11.0473 13.5542 11.0869C13.5381 11.1265 13.5142 11.1624 13.4841 11.1928C13.4539 11.2231 13.4181 11.2471 13.3786 11.2636C13.3391 11.28 13.2968 11.2884 13.254 11.2884ZM11.1135 10.6398H12.9297V8.82162H11.1135V10.6398Z"/>
<path d="M7.87317 11.2884H5.40831C5.32229 11.2884 5.2398 11.2543 5.17898 11.1934C5.11815 11.1326 5.08398 11.0501 5.08398 10.9641V8.4973C5.08398 8.41128 5.11815 8.32879 5.17898 8.26797C5.2398 8.20714 5.32229 8.17297 5.40831 8.17297H7.87317C7.95919 8.17297 8.04168 8.20714 8.1025 8.26797C8.16332 8.32879 8.19749 8.41128 8.19749 8.4973V10.9622C8.19775 11.0049 8.18955 11.0473 8.17337 11.0869C8.15718 11.1265 8.13333 11.1624 8.10319 11.1928C8.07305 11.2231 8.03721 11.2471 7.99773 11.2636C7.95826 11.28 7.91592 11.2884 7.87317 11.2884V11.2884ZM5.73263 10.6398H7.54885V8.82162H5.73263V10.6398Z"/>
<path d="M18.6339 15.7719H16.1691C16.083 15.7719 16.0005 15.7377 15.9397 15.6769C15.8789 15.6161 15.8447 15.5336 15.8447 15.4476V12.9827C15.8447 12.8967 15.8789 12.8142 15.9397 12.7534C16.0005 12.6926 16.083 12.6584 16.1691 12.6584H18.6339C18.7199 12.6584 18.8024 12.6926 18.8633 12.7534C18.9241 12.8142 18.9582 12.8967 18.9582 12.9827V15.4476C18.9582 15.5336 18.9241 15.6161 18.8633 15.6769C18.8024 15.7377 18.7199 15.7719 18.6339 15.7719ZM16.4934 15.1233H18.3096V13.307H16.4934V15.1233Z"/>
<path d="M13.254 15.7719H10.7892C10.7032 15.7719 10.6207 15.7377 10.5598 15.6769C10.499 15.6161 10.4648 15.5336 10.4648 15.4476V12.9827C10.4648 12.8967 10.499 12.8142 10.5598 12.7534C10.6207 12.6926 10.7032 12.6584 10.7892 12.6584H13.254C13.3401 12.6584 13.4225 12.6926 13.4834 12.7534C13.5442 12.8142 13.5784 12.8967 13.5784 12.9827V15.4476C13.5784 15.5336 13.5442 15.6161 13.4834 15.6769C13.4225 15.7377 13.3401 15.7719 13.254 15.7719ZM11.1135 15.1233H12.9297V13.307H11.1135V15.1233Z"/>
<path d="M7.87317 15.7719H5.40831C5.32229 15.7719 5.2398 15.7377 5.17898 15.6769C5.11815 15.6161 5.08398 15.5336 5.08398 15.4476V12.9827C5.08398 12.8967 5.11815 12.8142 5.17898 12.7534C5.2398 12.6926 5.32229 12.6584 5.40831 12.6584H7.87317C7.95919 12.6584 8.04168 12.6926 8.10251 12.7534C8.16333 12.8142 8.1975 12.8967 8.1975 12.9827V15.4476C8.1975 15.5336 8.16333 15.6161 8.10251 15.6769C8.04168 15.7377 7.95919 15.7719 7.87317 15.7719V15.7719ZM5.73263 15.1233H7.54885V13.307H5.73263V15.1233Z"/>
<path d="M18.6339 20.2557H16.1691C16.083 20.2557 16.0005 20.2215 15.9397 20.1607C15.8789 20.0999 15.8447 20.0174 15.8447 19.9313V17.4665C15.8447 17.3805 15.8789 17.298 15.9397 17.2371C16.0005 17.1763 16.083 17.1422 16.1691 17.1422H18.6339C18.7199 17.1422 18.8024 17.1763 18.8633 17.2371C18.9241 17.298 18.9582 17.3805 18.9582 17.4665V19.9313C18.9582 20.0174 18.9241 20.0999 18.8633 20.1607C18.8024 20.2215 18.7199 20.2557 18.6339 20.2557ZM16.4934 19.607H18.3096V17.7908H16.4934V19.607Z"/>
<path d="M7.87317 20.2557H5.40831C5.32229 20.2557 5.2398 20.2215 5.17898 20.1607C5.11815 20.0999 5.08398 20.0174 5.08398 19.9313V17.4665C5.08398 17.3805 5.11815 17.298 5.17898 17.2371C5.2398 17.1763 5.32229 17.1422 5.40831 17.1422H7.87317C7.95919 17.1422 8.04168 17.1763 8.10251 17.2371C8.16333 17.298 8.1975 17.3805 8.1975 17.4665V19.9313C8.1975 20.0174 8.16333 20.0999 8.10251 20.1607C8.04168 20.2215 7.95919 20.2557 7.87317 20.2557V20.2557ZM5.73263 19.607H7.54885V17.7908H5.73263V19.607Z"/>
<path d="M14.2901 23.4224H9.59972C9.5137 23.4224 9.43121 23.3882 9.37038 23.3274C9.30956 23.2665 9.27539 23.1841 9.27539 23.098V17.4486C9.27565 17.2432 9.35741 17.0462 9.50273 16.9009C9.64805 16.7557 9.84506 16.674 10.0505 16.6738H13.8396C14.0451 16.674 14.242 16.7557 14.3873 16.901C14.5326 17.0462 14.6143 17.2432 14.6144 17.4486V23.098C14.6144 23.1841 14.5803 23.2665 14.5194 23.3274C14.4586 23.3882 14.3761 23.4224 14.2901 23.4224V23.4224ZM9.92534 22.7737H13.9658V17.4486C13.9658 17.4321 13.9625 17.4157 13.9562 17.4004C13.9498 17.3851 13.9405 17.3711 13.9288 17.3594C13.9171 17.3477 13.9032 17.3384 13.8879 17.3321C13.8726 17.3257 13.8562 17.3225 13.8396 17.3225H10.0518C10.0183 17.3225 9.98621 17.3358 9.9625 17.3594C9.93879 17.3831 9.92542 17.4151 9.92534 17.4486V22.7737Z"/>
</svg>
