<svg width="24" height="24" viewBox="0 0 24 24" xmlns="http://www.w3.org/2000/svg">
<path d="M21.8109 14.3189C21.7281 14.3189 21.6483 14.2873 21.5881 14.2304C21.3736 14.0275 21.1337 13.853 20.8746 13.7115C20.8002 13.6697 20.7452 13.6003 20.7216 13.5183C20.698 13.4363 20.7077 13.3483 20.7485 13.2734C20.7894 13.1985 20.8581 13.1427 20.9398 13.1181C21.0214 13.0935 21.1095 13.1021 21.185 13.142C21.4934 13.31 21.7789 13.5171 22.0344 13.7582C22.0816 13.8028 22.1143 13.8605 22.1283 13.9239C22.1424 13.9873 22.137 14.0535 22.113 14.1138C22.089 14.1742 22.0475 14.2259 21.9937 14.2624C21.94 14.2988 21.8765 14.3183 21.8116 14.3183L21.8109 14.3189Z"/>
<path d="M19.1549 21.0097H7.97541C6.86279 21.0097 5.79574 20.5677 5.009 19.781C4.22226 18.9942 3.78027 17.9272 3.78027 16.8146C3.78027 15.702 4.22226 14.6349 5.009 13.8482C5.79574 13.0614 6.86279 12.6194 7.97541 12.6194H15.1008C15.1868 12.6194 15.2693 12.6536 15.3301 12.7144C15.391 12.7753 15.4251 12.8578 15.4251 12.9438C15.4251 13.0298 15.391 13.1123 15.3301 13.1731C15.2693 13.2339 15.1868 13.2681 15.1008 13.2681H7.97541C7.03482 13.2681 6.13276 13.6417 5.46766 14.3068C4.80257 14.9719 4.42892 15.874 4.42892 16.8146C4.42892 17.7552 4.80257 18.6572 5.46766 19.3223C6.13276 19.9874 7.03482 20.3611 7.97541 20.3611H19.1549C20.0951 20.3605 20.9968 19.9869 21.662 19.3223C22.3271 18.6578 22.7015 17.7565 22.703 16.8162C22.703 16.7513 22.6997 16.6865 22.6968 16.6236C22.6949 16.581 22.7013 16.5385 22.7158 16.4984C22.7302 16.4584 22.7525 16.4215 22.7812 16.3901C22.8099 16.3586 22.8445 16.3331 22.883 16.315C22.9216 16.2969 22.9634 16.2866 23.0059 16.2846C23.0486 16.282 23.0914 16.2879 23.1318 16.3021C23.1722 16.3163 23.2092 16.3385 23.2409 16.3673C23.2725 16.3962 23.298 16.4311 23.3158 16.47C23.3337 16.5089 23.3436 16.5509 23.3448 16.5937C23.3484 16.6667 23.3516 16.7432 23.3516 16.8162C23.3499 17.9284 22.9071 18.9946 22.1203 19.7807C21.3336 20.5669 20.2671 21.0089 19.1549 21.0097Z"/>
<path d="M18.7493 13.2681H17.6564C17.5703 13.2681 17.4878 13.2339 17.427 13.1731C17.3662 13.1123 17.332 13.0298 17.332 12.9438C17.332 12.8578 17.3662 12.7753 17.427 12.7144C17.4878 12.6536 17.5703 12.6194 17.6564 12.6194H18.7493C18.8354 12.6194 18.9178 12.6536 18.9787 12.7144C19.0395 12.7753 19.0737 12.8578 19.0737 12.9438C19.0737 13.0298 19.0395 13.1123 18.9787 13.1731C18.9178 13.2339 18.8354 13.2681 18.7493 13.2681Z"/>
<path d="M13.5665 21.0101C13.4805 21.0101 13.398 20.9759 13.3372 20.9151C13.2764 20.8542 13.2422 20.7718 13.2422 20.6857V12.9435C13.2422 12.8574 13.2764 12.775 13.3372 12.7141C13.398 12.6533 13.4805 12.6191 13.5665 12.6191C13.6525 12.6191 13.735 12.6533 13.7959 12.7141C13.8567 12.775 13.8908 12.8574 13.8908 12.9435V20.6857C13.8908 20.7718 13.8567 20.8542 13.7959 20.9151C13.735 20.9759 13.6525 21.0101 13.5665 21.0101Z"/>
<path d="M4.84072 20.5174C4.07228 20.5168 3.31877 20.3052 2.66239 19.9057C2.006 19.5061 1.47196 18.9339 1.11853 18.2516C0.765101 17.5693 0.605857 16.803 0.658174 16.0363C0.71049 15.2697 0.972358 14.5321 1.41521 13.9041L7.85791 4.76759C8.49916 3.85823 9.47539 3.24084 10.5718 3.05126C11.6683 2.86168 12.7951 3.11542 13.7045 3.75667C14.6139 4.39792 15.2312 5.37415 15.4208 6.4706C15.6104 7.56705 15.3567 8.6939 14.7154 9.60327L12.2295 13.129C12.1799 13.1993 12.1045 13.2471 12.0197 13.2618C11.935 13.2764 11.8478 13.2569 11.7775 13.2073C11.7072 13.1578 11.6595 13.0823 11.6448 12.9976C11.6301 12.9128 11.6497 12.8257 11.6992 12.7554L14.1852 9.23062C14.4536 8.84998 14.6445 8.4202 14.7468 7.96581C14.8492 7.51142 14.861 7.04131 14.7817 6.58234C14.7024 6.12337 14.5334 5.68451 14.2845 5.29084C14.0355 4.89716 13.7115 4.55636 13.3309 4.28791C12.9502 4.01946 12.5205 3.82861 12.0661 3.72626C11.6117 3.62391 11.1416 3.61206 10.6826 3.69138C9.75567 3.85159 8.93034 4.37346 8.38818 5.14218L1.9458 14.2778C1.52494 14.8741 1.29836 15.5858 1.29697 16.3157C1.29559 17.0456 1.51947 17.7582 1.93807 18.3561C2.35666 18.9541 2.94957 19.4083 3.63588 19.6568C4.32218 19.9053 5.06845 19.9359 5.77283 19.7446C5.85588 19.7222 5.94442 19.7337 6.01899 19.7765C6.09356 19.8194 6.14804 19.8902 6.17045 19.9732C6.19286 20.0563 6.18135 20.1448 6.13847 20.2194C6.09559 20.2939 6.02485 20.3484 5.9418 20.3708C5.58286 20.4681 5.21261 20.5174 4.84072 20.5174V20.5174Z"/>
<path d="M9.75046 13.2665C9.6837 13.2665 9.61858 13.2459 9.56397 13.2075L4.71468 9.78845C4.67986 9.76392 4.65021 9.73277 4.62743 9.69678C4.60465 9.66079 4.58919 9.62066 4.58191 9.5787C4.57464 9.53673 4.5757 9.49374 4.58504 9.45219C4.59438 9.41063 4.61182 9.37132 4.63635 9.3365C4.6859 9.26618 4.76135 9.21843 4.8461 9.20374C4.88807 9.19647 4.93106 9.19753 4.97261 9.20687C5.01417 9.21621 5.05348 9.23364 5.0883 9.25818L9.93792 12.6772C9.99422 12.717 10.0364 12.7736 10.0583 12.8389C10.0803 12.9042 10.0809 12.9748 10.06 13.0405C10.0391 13.1062 9.99782 13.1635 9.94217 13.2041C9.88651 13.2448 9.81937 13.2666 9.75046 13.2665Z"/>
</svg>
